<svg width="954" height="591" viewBox="0 0 954 591" fill="none" xmlns="http://www.w3.org/2000/svg">
<path fill-rule="evenodd" clip-rule="evenodd" d="M703.321 477.027C698.804 482.251 692.134 486.128 687.016 490.904C681.642 495.921 675.809 500.305 670.456 505.261C646.842 476.4 614.494 458.703 586.471 434.754C573.186 423.399 563.398 407.998 556.235 392.192C552.563 384.089 549.85 375.749 547.727 367.117C546.771 363.229 545.836 359.354 545.211 355.413C544.454 350.64 544.258 350.233 541.038 346.508C539.652 344.905 536.967 340.221 534.252 340.737C531.967 341.172 527.788 348.127 526.344 349.845C519.4 358.108 512.668 366.622 505.357 374.565C494.172 386.719 483.989 398.679 473.604 411.561C452.36 437.916 429.444 462.725 406.32 487.524C404.605 489.363 400.606 494.756 398.142 495.481C395.146 496.362 390.277 492.687 387.26 490.633C379.977 485.675 374.237 479.538 368.011 473.393C355.862 461.401 347.635 444.568 342.101 428.552C338.788 418.965 336.634 409.027 333.215 399.473C331.79 395.491 328.56 390.597 330.2 387.129C330.688 386.095 333.796 383.348 334.892 383.138C336.188 382.889 338.349 384.666 338.799 384.543C343.099 383.366 340.713 378.865 343.271 376.443C344.721 375.069 352.096 375.27 354.298 374.515C362.349 371.753 369.572 366.485 377.183 363.34C409.046 350.176 441.297 337.371 468.804 315.874C475.938 310.3 480.678 306.111 489.19 302.508C497.792 298.867 506.439 295.619 515.216 292.442C522.96 289.639 530.746 287.011 538.746 285.002C547.396 282.829 559.667 280.074 568.31 282.873C585.283 288.368 590.764 302.353 597.523 317.106C606.668 337.066 617.725 355.954 629.712 374.326C652.772 409.674 680.818 441.393 703.321 477.027Z" fill="#F2AB27"/>
<path fill-rule="evenodd" clip-rule="evenodd" d="M192.16 164.53C191.226 164.056 183.934 167.024 182.71 167.478C177.821 169.292 173.216 172.306 168.61 174.758C172.14 179.054 175.671 183.351 179.2 187.648C182.66 179.161 187.107 172.158 192.16 164.53ZM194.567 217.335C193.366 217.47 203.506 241.837 204.69 244.573C208.999 254.524 213.523 264.378 217.889 274.304C222.119 283.923 227.485 292.772 232.891 301.758C237.515 309.443 242.271 321.369 249.246 327.061C244.842 307.523 245.422 285.058 232.79 268.653C219.696 251.646 206.75 235.039 194.567 217.335ZM703.321 477.895C683.754 446.91 659.26 419.499 638.856 389.067C627.431 372.027 616.311 354.769 606.694 336.631C599.699 323.437 595.351 304.612 584.547 294.525C579.786 290.081 574.699 285.731 568.31 283.74C559.567 281.016 547.529 283.716 538.746 285.87C522.379 289.883 506.39 296.115 490.887 302.66C475.162 309.298 461.746 321.222 447.538 330.802C432.297 341.08 415.799 348.567 398.723 355.121C383.855 360.828 370.628 369.021 355.839 374.765C352.892 375.91 346.878 375.742 344.406 377.235C341.742 378.842 342.791 383.588 339.557 385.339C338.098 386.129 337.612 383.265 336.492 383.312C335.122 383.369 333.873 384.977 332.553 385.995C327.178 390.142 330.471 392.907 332.599 398.613C339.536 417.205 343.264 436.121 353.004 453.673C361.012 468.1 372.473 481.028 385.967 490.579C388.02 492.033 394.711 497.665 397.12 497.29C399.289 496.954 403.702 491.188 405.2 489.622C411.995 482.516 418.206 474.872 424.997 467.755C435.491 456.756 445.593 445.462 455.777 434.313C467.599 421.37 478.062 406.705 488.71 392.876C493.608 386.514 499.913 381.332 505.357 375.433C512.678 367.501 519.4 358.974 526.345 350.713C528.445 348.213 531.965 341.818 535.23 341.893C537.518 341.946 541.552 347.333 542.749 349.021C547.197 355.296 547.177 366.628 549.389 374.461C554.787 393.561 564.52 412.216 577.869 426.955C591.143 441.612 608.147 452.035 623.847 463.816C640.855 476.58 656.968 489.642 670.456 506.129C675.809 501.173 681.642 496.788 687.016 491.772C692.135 486.995 698.805 483.119 703.321 477.895ZM451.452 565.555C455.256 565.594 461.698 567.934 465.101 566.525C455.007 555.356 445.737 545.773 432.966 537.588C419.713 529.094 406.504 520.676 393.632 511.616C367.691 493.358 348.611 471.705 337.775 441.299C334.985 433.469 333.116 425.257 331.071 417.208C329.971 412.873 327.781 392.593 324.062 390.842C321.859 389.804 305.279 401.457 302.652 402.909C296.51 406.306 290.345 408.94 283.995 411.598C270.346 417.313 256.275 421.672 241.801 425.311C224.448 429.674 212.628 422.455 201.878 408.816C189.682 393.342 179.547 375.883 168.396 359.633C163.325 352.242 159.124 344.863 155.379 336.711C152.928 331.377 143.207 316.986 146.566 311.303C156.149 318.599 159.597 333.106 166.125 342.875C174.261 355.05 183.43 366.529 191.608 378.693C198.485 388.921 205.501 401.316 215.661 408.669C224.598 415.136 233.088 413.148 242.706 410.241C254.363 406.719 266.446 404.983 277.87 400.614C290.233 395.887 301.93 389.181 313.992 383.713C319.615 381.163 326.348 379.714 331.647 376.535C336.214 373.797 335.533 372.351 335.868 366.52C336.26 359.717 336.711 352.909 337.012 346.1C337.214 341.525 334.74 335.322 336.419 331.907C322.725 334.281 309.341 337.461 295.743 340.274C288.298 341.814 281.119 343.718 273.598 344.928C270.731 345.389 266.812 345.376 264.245 346.625C262.197 346.037 261.153 346.411 261.113 347.746C261.015 348.471 260.86 349.186 260.647 349.889C256.448 351.799 254.006 347.702 250.364 343.772C245.87 338.922 242.505 333.46 239.208 327.761C231.836 315.019 223.339 303.035 216.517 289.934C209.564 276.579 203.917 262.28 198.022 248.424C192.614 235.712 189.151 221.964 183.175 209.553C180.508 204.013 177.128 199.432 173.181 194.752C169.924 190.89 164.913 182.559 160.049 180.785C158.763 180.316 155.395 181.104 153.934 181C151.022 180.792 148.427 179.723 145.447 179.957C138.995 180.462 131.961 184.542 126.805 188.129C130.137 191.099 138.472 194.709 132.485 200.059C126.675 205.253 123.466 195.936 121.249 191.854C110.809 200.427 112.318 212.248 111.112 224.361C110.482 230.685 108.825 236.913 107.756 243.142C106.986 247.625 107.526 252.262 107.306 256.839C106.745 268.47 105.576 279.603 105.631 291.071C105.693 303.329 106.528 315.167 107.509 327.336C109.16 347.824 112.943 368.319 116.187 388.644C118.012 400.069 120.51 411.169 122.935 422.409C125.687 435.166 130.778 447.249 133.633 459.973C136.542 456.275 138.73 456.257 143.435 456.747C147.054 457.124 149.485 456.263 149.273 461.286C149.136 464.544 146.262 467.032 143.082 467.601C138.935 468.342 137.526 466.273 135.389 463.132C134.889 469.08 138.889 475.299 140.471 481.108C141.968 486.613 142.96 492.009 145.476 497.278C147.931 502.418 150.033 507.488 152.517 512.579C153.661 514.921 154.731 517.3 155.888 519.636C156.473 520.819 157.162 522.449 158.035 523.446C160.083 525.783 159.757 524.651 162.154 525.982C167.376 528.883 165.415 528.16 165.537 534.15C165.656 540.059 168.686 544.4 173.545 547.721C183.854 554.769 194.022 556.729 205.742 560.29C216.662 563.608 228.164 566.455 239.727 566.39C253.889 566.311 267.863 564.454 282.025 564.266C297.649 564.059 313.423 564.144 329.015 564.684C335.438 564.906 341.403 565.192 347.604 566.832C354.805 568.738 361.771 567.982 369.193 567.693C385.027 567.077 401.407 565.852 417.034 565.742C428.286 565.662 440.158 564.877 451.452 565.555ZM862.04 571.693C864.855 573.18 871.165 572.57 873.995 572.157C878.98 571.43 879.514 569.454 882.677 565.009C888.121 557.354 892.541 550.023 895.744 541.156C901.874 524.185 904.377 506.823 907.068 489.07C910.059 469.344 904.597 448.897 902.643 429.305C902.194 424.81 901.58 420.356 900.87 415.895C900.445 413.228 900.334 404.155 898.579 401.846C895.207 397.41 879.527 400.988 873.362 401.39C856.154 402.514 838.833 402.777 821.633 402.972C812.462 403.076 803.24 403.46 794.16 403.531C789.99 403.564 785.913 403.357 781.728 402.951C780.328 402.816 778.961 402.494 777.551 402.416C772.723 402.149 773.086 401.449 771.838 405.724C769.652 413.214 771.334 422.743 770.76 430.517C769.992 440.905 769.577 451.44 769.767 461.85C769.943 471.47 769.615 481.068 769.974 490.709C770.124 494.702 770.56 497.957 771.613 501.77C772.804 506.081 774.114 516.153 777.08 519.136C777.417 519.476 779.938 518.684 780.607 519.53C781.638 520.833 781.449 523.59 782.157 524.432C784.448 527.158 789.183 527.374 792.618 528.599C802.043 531.96 810.689 535.609 819.572 540.141C827.509 544.19 840.306 547.636 845.078 555.624C847.266 559.286 847.561 564.115 849.573 567.893C851.864 572.197 847.28 569.947 852.893 571.693C855.421 572.479 859.449 571.693 862.04 571.693ZM25.285 523.015C24.571 532.954 18.972 542.421 17.023 552.193C16.111 556.769 14.564 561.267 13.492 565.816C12.464 570.18 8.75002 575.348 9.12602 579.666C22.834 574.782 36.719 573.554 51.046 572.237C64.625 570.988 78.97 570.491 92.435 570.485C106.156 570.478 120.827 569.138 134.955 568.93C149.73 568.713 164.728 568.33 179.289 566.798C171.675 561.159 162.148 555.863 156.526 548.017C150.414 539.488 147.24 528.802 141.862 519.802C131.07 501.741 124.209 479.33 118.552 459.039C107.131 418.077 94.368 377.871 91.292 335.383C85.438 338.381 80.791 350.012 77.86 355.804C74.119 363.199 72.16 371.215 69.728 379.075C64.72 395.264 61.254 412.05 55.122 428.085C43.402 458.737 35.869 491.765 25.285 523.015ZM769.397 284.278C771.932 302.598 777.248 321.155 777.452 339.696C777.497 343.775 776.806 348.305 777.656 352.327C778.564 356.621 781.517 360.417 783.222 364.498C785.928 370.976 792.781 384.254 786.172 389.743C786.038 384.534 781.271 377.919 778.87 373.364C775.251 366.501 770.496 360.226 766.573 353.533C758.361 339.524 749.159 325.815 738.576 313.465C728.268 301.435 716.388 290.764 705.457 279.309C702.173 275.867 675.827 242.74 674.78 243.203C682.952 274.717 696.844 302.137 715.855 328.523C725.176 341.458 736.363 349.97 747.71 360.928C757.159 370.054 774.968 379.812 771.701 394.765C786.472 393.345 801.146 391.076 816.051 391.076C813.6 372.211 811.723 353.645 807.347 335.09C802.379 314.021 799.014 292.322 794.81 271.066C790.52 249.366 783.243 228.358 778.716 206.699C774.381 185.959 770.657 165.256 767.479 144.285C764.853 155.905 765.822 168.668 764.89 180.524C763.938 192.637 764.03 204.527 764.347 216.711C764.934 239.342 767.346 261.7 769.397 284.278ZM833.403 176.38C833.486 166.693 835.363 157.137 835.942 147.473C836.12 144.508 839.073 124.279 836.319 123.223C834.054 128.161 833.526 134.48 831.469 139.661C829.414 144.837 826.665 149.768 824.693 154.98C820.421 166.271 818.947 179.047 818.487 191.051C817.446 218.203 816.908 245.294 818.733 272.446C819.515 284.084 820.115 295.742 819.901 307.403C819.666 320.234 817.701 331.371 820.087 344.097C822.449 356.699 823.933 369.249 824.72 382.035C825.272 391.009 825.494 390.374 834.056 389.743C840.237 389.287 846.479 389.774 852.669 389.491C849.775 354.515 849.302 319.467 844.679 284.625C842.32 266.85 842.257 248.818 839.327 231.109C837.871 222.312 835.428 213.692 834.024 204.885C832.517 195.429 833.259 185.909 833.403 176.38ZM207.295 154.369C223.778 155.797 241.311 160.725 258.206 157.471C255.421 156.343 248.133 154.787 251.413 150.335C254.748 145.808 260.368 151.55 263.694 150.957C265.745 150.591 270.277 142.018 271.541 140.243C274.41 136.209 274.756 135.506 279.915 134.472C284.913 133.472 286.046 134.555 286.679 129.586C287.406 123.872 285.429 117.448 285.625 111.605C286.046 99.0257 290.104 87.9947 293.881 76.1597C277.834 79.6507 262.143 83.7907 245.735 86.0407C238.721 87.0027 227.809 89.2217 221.437 84.4537C219.78 83.2137 220.045 81.5397 218.689 80.1027C216.415 77.6917 212.197 75.1977 208.972 74.5107C189.125 70.2857 187.189 98.5787 197.135 109.166C199.626 111.819 203.092 113.129 205.643 115.56C209.048 118.802 209.327 122.217 209.824 127.166C210.756 136.446 209.49 145.762 205.531 154.251L207.295 154.369ZM448.14 287.939C453.999 289.051 460.114 288.797 465.988 289.746C468.075 290.083 474.332 291.259 476.167 290.039C478.969 288.176 479.965 281.343 481.29 278.161C483.62 272.564 486.917 267.682 489.139 261.983C498.219 238.705 506.686 215.334 517.668 192.851C513.459 191.757 510.227 191.714 505.985 191.149C501.566 190.56 497.56 187.947 493.344 186.824C489.337 185.757 485.139 186.029 481.169 184.788C478.982 184.105 477.105 182.586 474.949 182.055C471.512 181.21 467.501 180.716 465.457 182.972C463.362 185.286 462.627 191.631 461.487 194.62C458.451 202.583 454.924 210.268 452.381 218.414C450.086 225.761 447.906 233.03 445.886 240.444C443.752 248.271 439.546 254.722 436.984 262.199C435.035 267.89 433.196 273.708 432.905 279.776C432.622 285.697 431.76 286.074 437.681 287.02C440.67 287.497 445.328 289.273 448.14 287.939ZM833.63 565.055C835.156 565.766 836.595 565.672 837.945 564.771C824.715 559.183 811.846 551.433 798.044 547.599C785.097 544.004 772.513 539.708 760.04 535.28C749.905 531.682 740.793 528.881 731.63 522.549C726.068 518.705 721.127 514.383 717.305 508.766C713.05 502.512 712.103 493.612 707.495 487.98C701.275 494.811 693.968 499.984 686.609 505.412C684.063 507.29 677.956 511.384 677.085 514.29C675.986 517.957 678.93 521.465 680.386 525.176C684.115 534.68 685.937 544.179 687.96 554.06C688.771 558.02 690.522 563.973 693.775 565.632C696.737 567.141 705.315 566.044 709.001 565.764C728.231 564.307 747.12 562.815 766.466 564.142C788.358 565.643 811.795 566.68 833.63 565.055ZM872.039 388.943C875.534 388.955 878.948 388.518 882.43 388.518C880.42 379.133 885.119 366.989 886.785 357.621C888.649 347.142 890.068 336.306 891.311 325.743C893.931 303.494 895.118 281.515 895.152 259.103C895.184 237.416 899.132 217.598 904.662 196.75C910.6 174.36 920.324 154.225 928.364 132.632C919.545 137.294 914.663 148.203 910.029 156.543C904.171 167.088 900.269 178.764 897.877 190.602C893.262 213.439 888.2 236.345 882.875 259.144C877.33 282.883 874.07 306.84 867.718 330.385C864.62 341.867 860.408 355.993 860.174 367.834C860.077 372.732 858.601 382.99 860.821 387.244C862.897 391.224 867.487 389.349 872.039 388.943ZM344.488 359.489C344.304 361.927 344.13 364.246 343.697 366.654C348.538 366.608 354.669 361.585 358.821 359.33C363.879 356.583 368.943 353.553 373.89 350.792C383.44 345.46 394.282 341.947 404.479 337.567C416.193 332.535 426.96 326.455 438.162 320.397C442.075 318.281 470.197 306.091 469.725 302.761C463.551 302.555 457.377 302.35 451.202 302.145C445.909 301.969 437.711 303.165 432.642 301.529C429.866 300.632 426.749 297.331 425.701 294.746C424.664 292.188 426.995 280.423 425.64 279.673C418.73 286.728 414.385 296.105 408.207 303.716C401.38 312.128 392.558 317.04 382.835 321.51C372.098 326.447 360.985 330.27 350.012 334.501C345.384 336.285 345.476 337.306 345.073 342.38C344.622 348.051 344.671 353.803 344.488 359.489ZM902.435 572.849C914.074 574.098 926.002 573.386 937.732 574.36C942 574.714 947.917 575.242 943.623 580.97C940.919 584.578 932.257 583.421 928.328 583.671C917.779 584.342 906.61 583.981 896.037 583.825C893.811 583.793 891.351 583.131 889.101 583.28C886.504 583.451 883.394 585.319 881.027 585.305C879.568 585.296 879.045 583.757 877.787 583.616C875.046 583.308 872.306 583.083 869.542 583.084C827.752 583.093 786.536 582.253 744.85 582.208C724.917 582.187 704.664 581.843 684.739 580.907C680.555 580.71 656.727 581.566 657.387 574.032C657.726 570.152 665.503 569.605 668.341 569.193C670.444 568.888 672.626 568.936 674.733 568.823C680.331 568.523 682.783 569.87 681.602 563.745C677.123 540.513 669.097 521.313 651.949 504.609C637.927 490.95 621.043 478.56 605.161 467.154C585.877 453.304 570.233 438.738 558.784 417.545C552.098 405.169 546.501 392.516 543.066 378.832C541.83 373.909 541.801 368.31 540.286 363.564C539.121 359.91 536.465 357.353 534.901 353.568C515.715 385.614 490.286 412.425 466.97 441.319C455.829 455.123 443.12 468.234 429.809 480.243C425.859 483.807 422.173 487.528 418.486 491.363C415.402 494.573 410.506 497.426 407.902 500.987C405.404 504.403 406.019 504.24 409.821 506.953C414.847 510.538 420.386 513.517 425.491 517.013C433.651 522.602 442.558 527.324 449.854 534.05C457.745 541.324 464.639 549.75 471.536 557.952C476.133 563.419 482.165 570.434 483.321 577.346C483.704 579.633 485.158 585.289 483.239 586.964C481.599 588.395 481.764 587.852 479.728 586.979C477.06 585.835 476.275 583.21 473.016 581.959C464.677 578.759 454.586 579.858 445.909 579.819C437.229 579.78 428.477 580.755 419.801 580.719C399.989 580.638 380.599 582.242 360.793 583.103C339.757 584.017 318.463 581.823 297.497 582.134C281.963 582.364 266.015 581.203 250.052 582.066C241.841 582.509 233.777 581.482 225.771 581.367C215.289 581.216 204.524 582.642 193.952 582.845C176.6 583.18 159.46 583.178 142.002 583.595C104.45 584.494 67.101 585.422 29.527 586.017C24.515 586.096 19.028 585.926 14.075 586.49C8.81802 587.09 11.532 588.207 7.92502 590.1C-2.17298 595.397 0.15902 575.761 0.40102 571.899C1.69902 551.203 6.95302 530.905 13.267 511.257C19.257 492.622 24.12 473.118 29.193 454.08C34.746 433.243 41.981 413.259 48.551 392.627C55.283 371.485 60.764 349.519 72.991 330.778C75.776 326.51 78.654 321.917 83.134 319.226C88.156 316.209 88.372 317.971 88.368 312.45C88.365 307.25 88.685 300.303 87.458 295.341C86.349 290.858 86.52 293.516 84.023 290.296C81.991 287.677 79.865 285.887 78.407 282.707C69.451 291.788 48.95 286.996 40.297 280.457C29.706 272.453 21.639 258.95 18.683 246.09C16.309 235.763 19.222 216.078 30.652 211.112C36.224 208.691 56.69 206.861 57.509 198.971C57.931 194.898 50.728 189.171 49.066 185.669C45.986 179.181 43.028 170.551 42.172 163.439C40.5 149.557 46.802 134.034 56.841 124.657C75.257 107.455 107.66 98.6267 131.349 109.541C126.343 90.4177 123.321 73.9207 125.842 54.0287C128.014 36.8917 138.125 27.3037 152.038 18.7677C175.78 4.19968 208.066 -1.55032 235.213 2.68568C241.382 3.64868 247.302 5.71368 253.014 7.35668C261.312 9.74368 271.246 8.94868 279.081 12.8267C284.762 15.6377 289.076 21.2377 294.065 24.9767C299.89 29.3417 304.73 35.8567 308.777 41.8817C317.432 54.7657 314.05 78.6777 306.806 91.6107C305.253 94.3847 303.334 96.7197 300.764 98.6127C298.088 100.583 294.009 101.196 292.63 103.751C289.098 110.296 292.505 124.465 292.976 131.539C293.525 139.753 289.372 145.923 280.058 146.578C274.67 146.958 274.498 143.832 271.918 150.264C270.246 154.433 268.727 158.975 266.314 162.797C261.339 170.674 252.227 169.905 243.927 169.692C234.319 169.444 224.855 167.926 215.242 166.968C217.781 175.103 224.731 181.417 229.071 188.664C234.939 198.466 238.471 206.591 239.425 218.011C240.157 226.785 238.577 233.714 232.573 240.244C230.088 242.947 227.885 243.08 228.502 246.198C228.878 248.1 232.167 251.238 233.331 252.756C236.41 256.772 239.985 260.458 242.695 264.747C253.123 281.249 256.203 306.405 256.229 325.615C256.23 326.496 256.7 328.369 256.311 329.28C256.023 329.953 253.835 332.084 253.803 332.267C253.375 334.737 255.783 338.971 259.562 339.39C263.531 339.829 270.8 336.517 274.492 335.429C280.4 333.687 286.422 332.401 292.317 330.612C301.838 327.723 311.315 325.419 320.994 323.155C325.368 322.133 329.766 321.281 334.154 320.325C339.152 319.237 341.474 317.134 344.054 322.219C346.267 326.583 344.891 327.374 350.252 325.175C355.575 322.99 360.776 320.282 365.973 317.816C375.139 313.468 386.055 309.592 393.962 303.173C407.151 292.464 412.035 275.41 424.658 264.047C428.173 260.883 430.27 260.827 432.492 256.444C434.871 251.753 436.098 245.737 437.348 240.691C439.539 231.855 441.098 222.988 443.085 214.16C445.56 203.162 450.909 193.202 454.812 182.712C456.333 178.625 457.121 173.43 459.574 169.757C460.224 168.783 461.466 168.234 461.973 167.428C463.718 164.661 463.7 163.901 464.152 160.572C466.267 145.017 475.552 153.2 485.698 156.767C489.973 158.27 510.272 168.017 502.521 174.499C511.761 177.18 526.56 175.723 526.436 188.965C526.372 195.75 522.314 203.008 520.136 209.359C518.201 214.998 516.331 220.659 514.366 226.289C510.061 238.622 504.838 250.586 500.637 262.957C498.722 268.595 497.142 274.365 494.476 279.686C492.125 284.38 486.432 289.554 485.494 294.687C510.117 284.182 532.896 268.994 560.457 269.962C572.525 270.385 583.477 275.458 590.142 286.069C598.498 299.369 603.996 314.26 612.163 327.683C641.874 376.512 677.31 420.872 709.926 467.68C712.431 471.277 715.653 474.678 716.522 479.123C717.089 482.023 715.989 484.924 716.669 487.71C718.08 493.5 725.209 500.729 730.043 504.056C739.309 510.434 754.372 519.43 765.935 518.634C758.678 501.194 758.775 482.085 759.112 463.482C759.433 445.811 761.343 428.282 763.61 410.793C764.123 406.836 764.57 403.168 765.707 399.333C767.012 394.933 768.804 395.35 764.895 391.395C758.879 385.305 751.723 380.294 745.658 374.128C732.541 360.794 719.097 350.343 708.773 334.42C698.955 319.275 688.597 303.692 681.329 287.107C673.847 270.034 670.856 251.801 667.142 233.72C665.635 226.383 660.139 218.192 661.243 210.53C662.639 200.847 667.129 207.898 668.957 213.109C674.535 229.016 687.596 243.253 698.414 256.046C710.102 269.866 724.397 281.429 736.597 294.847C749.882 309.461 758.982 326.256 770.796 341.856C770.796 322.496 764.186 302.782 761.482 283.63C759.103 266.773 758.356 249.863 756.852 232.933C753.437 194.475 756.388 154.884 761.181 116.701C763.459 98.5667 762.167 80.8597 762.236 62.6637C762.258 56.8727 759.861 43.5257 762.916 38.3867C768.767 28.5437 772.18 50.0667 772.476 53.2757C774.245 72.3917 771.072 91.2947 772.693 110.329C774.387 130.206 778.063 149.525 781.191 169.172C784.58 190.445 790.097 211.238 795.379 232.103C800.925 254.01 805.589 276.374 811.755 298.106C813.418 291.275 811.085 282.883 810.624 275.926C809.966 265.97 808.681 256.012 808.57 246.03C808.392 230.121 808.268 213.917 809.168 198.082C810.055 182.474 809.787 166.119 814.574 151.082C816.846 143.945 820.178 136.982 823.438 130.259C827.46 121.969 828.882 113.931 831.109 105.114C833.017 97.5627 835.809 90.2107 837.08 82.5087C837.87 77.7187 840.075 63.5787 845.559 74.2917C848.743 80.5097 847.367 89.7277 847.456 96.4077C847.57 104.972 846.259 113.299 846.058 121.827C845.667 138.559 845.386 155.271 844.138 171.975C842.829 189.5 843.972 205.206 847.306 222.474C850.955 241.376 852.023 260.319 853.914 279.452C854.889 289.331 856.533 299.155 857.327 309.048C857.747 314.287 855.593 329.31 859.347 333.041C859.71 323.967 862.31 314.885 864.281 306.043C866.616 295.568 867.559 284.556 869.28 273.931C872.067 256.717 877.475 240.278 881.053 223.257C888.428 188.17 894.556 143.075 925.464 120.109C929.508 117.104 933.952 114.886 938.324 112.413C940.799 111.013 944.476 107.391 947.308 106.759C950.399 106.069 951.688 106.605 952.941 110.191C954.688 115.19 951.493 117.525 948.51 121.156C938.187 133.72 933.777 149.826 927.403 164.561C912.807 198.302 906.349 233.89 906.275 270.362C906.236 289.455 904.919 307.87 902.883 326.847C900.692 347.27 897.807 368.87 891.602 388.517C897.825 389.912 904.577 387.832 906.266 395.066C906.681 396.843 905.931 398.944 906.39 401.257C906.836 403.505 907.909 405.741 908.544 407.952C909.856 412.525 910.55 417.037 911.188 421.733C913.655 439.881 917.891 457.142 918.342 475.543C918.757 492.552 915.427 509.785 912.359 526.467C909.268 543.269 900.403 557.592 893.424 572.787C896.428 572.787 899.431 572.818 902.435 572.849Z" fill="#0000FF"/>
<path fill-rule="evenodd" clip-rule="evenodd" d="M507.434 534.225C504.124 535.161 488.145 536.927 488.148 541.941C488.15 544.948 504.108 544.889 506.932 545.216C507.1 541.553 507.267 537.889 507.434 534.225ZM542.705 568.824C551.913 570.575 564.412 568.113 570.299 559.995C573.05 556.202 574.354 550.433 575.25 545.906C576.106 541.592 578.745 530.827 576.949 526.783C574.744 521.817 553.587 527.007 547.426 527.577C536.677 528.569 525.562 528.686 514.806 527.985C514.806 539.091 514.239 549.915 520.771 559.474C525.484 566.371 534.333 567.999 542.705 568.824ZM540.854 582.542C530.849 578.88 520.345 581.26 513.83 570.519C512.177 567.794 510.785 564.864 509.785 561.837C509.296 560.511 508.916 559.153 508.646 557.762C509.155 554.768 508.058 553.924 505.356 555.229C500.053 554.198 494.238 557.838 488.652 556.765C475.104 554.163 477.565 534.756 486.657 528.038C488.453 526.71 490.247 526.341 492.303 525.685C496.835 524.241 499.288 525.854 503.433 525.444C506.783 525.113 507.704 521.6 511.304 520.053C513.661 519.041 516.933 519.119 519.411 519.017C532.379 518.484 545.388 518.489 558.439 517.644C564.526 517.25 571.098 518.214 577.061 517.174C579.853 516.686 579.452 514.828 582.096 516.458C584.833 518.146 583.651 524.388 583.513 526.877C582.714 541.27 581.857 556.706 574.147 569.289C567.093 580.802 553.212 581.98 540.854 582.542Z" fill="#0000FF"/>
<path fill-rule="evenodd" clip-rule="evenodd" d="M12.4668 586.508C15.6858 586.473 18.9038 586.439 22.1118 586.406C18.8888 586.441 15.6778 586.474 12.4668 586.508Z" fill="#0000FF"/>
<path fill-rule="evenodd" clip-rule="evenodd" d="M906.295 279.631C906.289 276.539 906.282 273.447 906.275 270.361C906.281 273.455 906.288 276.543 906.295 279.631Z" fill="#0000FF"/>
<path fill-rule="evenodd" clip-rule="evenodd" d="M87.4675 292.329C87.4575 295.341 87.4475 298.353 87.4375 301.358C87.4465 298.344 87.4565 295.336 87.4675 292.329Z" fill="#0000FF"/>
<path fill-rule="evenodd" clip-rule="evenodd" d="M355.037 583.093C357.598 583.097 360.159 583.1 362.708 583.107C360.143 583.104 357.591 583.099 355.037 583.093Z" fill="#0000FF"/>
<path fill-rule="evenodd" clip-rule="evenodd" d="M199.54 582.479C202.101 582.487 204.661 582.495 207.21 582.505C204.645 582.498 202.093 582.488 199.54 582.479Z" fill="#0000FF"/>
<path fill-rule="evenodd" clip-rule="evenodd" d="M759.45 457.387C759.338 459.42 759.224 461.452 759.112 463.481C759.225 461.446 759.338 459.417 759.45 457.387Z" fill="#0000FF"/>
<path fill-rule="evenodd" clip-rule="evenodd" d="M902.436 572.848C900.457 572.827 898.478 572.807 896.499 572.786C898.487 571.957 900.466 571.994 902.436 572.848Z" fill="#0000FF"/>
<path fill-rule="evenodd" clip-rule="evenodd" d="M726.729 581.85C728.15 581.828 729.57 581.806 730.977 581.782C729.553 581.803 728.141 581.827 726.729 581.85Z" fill="#0000FF"/>
<path fill-rule="evenodd" clip-rule="evenodd" d="M905.524 304.719C905.559 303.182 905.594 301.646 905.629 300.115C905.594 301.653 905.559 303.186 905.524 304.719Z" fill="#0000FF"/>
<path fill-rule="evenodd" clip-rule="evenodd" d="M772.693 110.329C772.576 108.744 772.459 107.16 772.341 105.579C772.459 107.165 772.576 108.747 772.693 110.329Z" fill="#0000FF"/>
<path fill-rule="evenodd" clip-rule="evenodd" d="M906.226 285.684C906.245 284.095 906.264 282.507 906.283 280.924C906.264 282.514 906.245 284.099 906.226 285.684Z" fill="#0000FF"/>
<path fill-rule="evenodd" clip-rule="evenodd" d="M459.541 579.88C460.804 579.899 462.067 579.917 463.319 579.933C462.054 579.913 460.797 579.897 459.541 579.88Z" fill="#0000FF"/>
<path fill-rule="evenodd" clip-rule="evenodd" d="M784.847 582.47C786.081 582.494 787.316 582.519 788.539 582.545C787.3 582.521 786.074 582.495 784.847 582.47Z" fill="#0000FF"/>
<path fill-rule="evenodd" clip-rule="evenodd" d="M918.2 470.761C918.111 469.367 918.022 467.974 917.935 466.583C918.024 467.977 918.112 469.369 918.2 470.761Z" fill="#0000FF"/>
<path fill-rule="evenodd" clip-rule="evenodd" d="M896.037 583.825C897.042 583.819 898.047 583.813 899.04 583.811C898.032 583.818 897.034 583.822 896.037 583.825Z" fill="#0000FF"/>
<path fill-rule="evenodd" clip-rule="evenodd" d="M759.119 582.534C760.114 582.51 761.109 582.485 762.094 582.462C761.095 582.487 760.106 582.511 759.119 582.534Z" fill="#0000FF"/>
<path fill-rule="evenodd" clip-rule="evenodd" d="M535.431 581.774C536.527 581.768 537.622 581.762 538.707 581.754C537.609 581.76 536.52 581.767 535.431 581.774Z" fill="#0000FF"/>
<path fill-rule="evenodd" clip-rule="evenodd" d="M282.822 581.77C283.863 581.777 284.905 581.785 285.935 581.794C284.89 581.788 283.856 581.779 282.822 581.77Z" fill="#0000FF"/>
<path fill-rule="evenodd" clip-rule="evenodd" d="M221.371 581.938C222.433 581.879 223.493 581.819 224.545 581.761C223.48 581.821 222.426 581.879 221.371 581.938Z" fill="#0000FF"/>
<path fill-rule="evenodd" clip-rule="evenodd" d="M515.576 177.32C513.996 177.184 512.416 177.048 510.836 176.911C512.418 177.022 514.091 176.086 515.576 177.32Z" fill="#0000FF"/>
<path fill-rule="evenodd" clip-rule="evenodd" d="M918.35 573.449C916.792 573.292 915.234 573.134 913.676 572.976C915.235 573.134 916.792 573.292 918.35 573.449Z" fill="#0000FF"/>
<path fill-rule="evenodd" clip-rule="evenodd" d="M809.678 186.913C809.574 188.278 809.468 189.644 809.364 191.005C809.469 189.638 809.574 188.275 809.678 186.913Z" fill="#0000FF"/>
<path fill-rule="evenodd" clip-rule="evenodd" d="M906.617 243.825C906.723 242.531 906.829 241.237 906.935 239.948C906.829 241.244 906.722 242.534 906.617 243.825Z" fill="#0000FF"/>
<path fill-rule="evenodd" clip-rule="evenodd" d="M809.058 208.087C808.946 209.45 808.833 210.812 808.722 212.17C808.834 210.806 808.946 209.446 809.058 208.087Z" fill="#0000FF"/>
<path fill-rule="evenodd" clip-rule="evenodd" d="M905.957 296.063C905.947 294.746 905.937 293.429 905.928 292.116C906.778 293.429 906.744 294.743 905.957 296.063Z" fill="#0000FF"/>
<path fill-rule="evenodd" clip-rule="evenodd" d="M759.472 485.195C759.46 486.515 759.449 487.836 759.435 489.15C758.563 487.819 758.737 486.504 759.472 485.195Z" fill="#0000FF"/>
<path fill-rule="evenodd" clip-rule="evenodd" d="M858.775 332.472C858.623 331.136 858.47 329.799 858.318 328.467C858.471 329.805 858.623 331.139 858.775 332.472Z" fill="#0000FF"/>
<path fill-rule="evenodd" clip-rule="evenodd" d="M36.5098 209.843C35.4768 211.208 34.0698 210.273 32.8418 210.439C34.0658 210.24 35.2878 210.042 36.5098 209.843Z" fill="#0000FF"/>
<path fill-rule="evenodd" clip-rule="evenodd" d="M547.302 518.591C545.997 518.593 544.692 518.594 543.387 518.596C544.693 518.594 545.997 518.592 547.302 518.591Z" fill="#0000FF"/>
<path fill-rule="evenodd" clip-rule="evenodd" d="M755.799 215.451C755.921 216.561 756.042 217.671 756.164 218.777C756.042 217.665 755.921 216.558 755.799 215.451Z" fill="#0000FF"/>
<path fill-rule="evenodd" clip-rule="evenodd" d="M110.852 105.21C109.54 105.236 108.228 105.262 106.916 105.288C108.214 104.524 109.522 104.303 110.852 105.21Z" fill="#0000FF"/>
<path fill-rule="evenodd" clip-rule="evenodd" d="M809.026 227.288C808.941 228.452 808.855 229.615 808.771 230.774C808.856 229.61 808.941 228.449 809.026 227.288Z" fill="#0000FF"/>
<path fill-rule="evenodd" clip-rule="evenodd" d="M773.046 84.4055C773.148 83.3445 773.249 82.2835 773.35 81.2285C773.248 82.2915 773.148 83.3485 773.046 84.4055Z" fill="#0000FF"/>
<path fill-rule="evenodd" clip-rule="evenodd" d="M762.736 81.0818C762.633 82.2328 762.53 83.3848 762.428 84.5318C762.531 83.3788 762.633 82.2298 762.736 81.0818Z" fill="#0000FF"/>
<path fill-rule="evenodd" clip-rule="evenodd" d="M192.843 4.19019C191.508 4.35219 190.173 4.51419 188.839 4.67519C190.174 4.51319 191.508 4.35219 192.843 4.19019Z" fill="#0000FF"/>
<path fill-rule="evenodd" clip-rule="evenodd" d="M96.4191 106.126C95.0491 106.266 93.6791 106.406 92.3101 106.546C93.6801 106.406 95.0501 106.266 96.4191 106.126Z" fill="#0000FF"/>
<path fill-rule="evenodd" clip-rule="evenodd" d="M847.152 109.5C847.236 108.429 847.319 107.357 847.402 106.292C847.319 107.364 847.235 108.432 847.152 109.5Z" fill="#0000FF"/>
<path fill-rule="evenodd" clip-rule="evenodd" d="M51.4531 286.256C52.2421 286.268 53.0301 286.279 53.8071 286.291C53.0151 286.279 52.2341 286.268 51.4531 286.256Z" fill="#0000FF"/>
<path fill-rule="evenodd" clip-rule="evenodd" d="M762.776 418.442C762.697 419.628 762.618 420.813 762.539 421.996C762.619 420.81 762.698 419.626 762.776 418.442Z" fill="#0000FF"/>
<path fill-rule="evenodd" clip-rule="evenodd" d="M843.261 187.64C843.229 186.497 843.199 185.355 843.166 184.215C843.2 185.359 843.23 186.499 843.261 187.64Z" fill="#0000FF"/>
<path fill-rule="evenodd" clip-rule="evenodd" d="M226.449 1.4857C225.232 1.4857 224.015 1.4867 222.8 1.4867C224.017 0.650704 225.233 0.671704 226.449 1.4857Z" fill="#0000FF"/>
<path fill-rule="evenodd" clip-rule="evenodd" d="M551.36 270.509C550.027 270.543 548.694 270.577 547.363 270.611C548.672 269.685 550.006 269.662 551.36 270.509Z" fill="#0000FF"/>
<path fill-rule="evenodd" clip-rule="evenodd" d="M667.85 579.833C668.64 579.849 669.431 579.866 670.211 579.885C669.417 579.87 668.633 579.851 667.85 579.833Z" fill="#0000FF"/>
<path fill-rule="evenodd" clip-rule="evenodd" d="M697.606 581.222C698.395 581.194 699.184 581.166 699.962 581.139C699.17 581.167 698.388 581.195 697.606 581.222Z" fill="#0000FF"/>
<path fill-rule="evenodd" clip-rule="evenodd" d="M231.911 581.771C232.734 581.792 233.557 581.813 234.369 581.833C233.543 581.812 232.727 581.792 231.911 581.771Z" fill="#0000FF"/>
<path fill-rule="evenodd" clip-rule="evenodd" d="M917.517 457.536C917.4 456.406 917.283 455.275 917.165 454.15C917.283 455.282 917.4 456.409 917.517 457.536Z" fill="#0000FF"/>
<path fill-rule="evenodd" clip-rule="evenodd" d="M810.033 267.038C810.127 268.115 810.22 269.192 810.312 270.262C810.219 269.184 810.126 268.111 810.033 267.038Z" fill="#0000FF"/>
<path fill-rule="evenodd" clip-rule="evenodd" d="M851.397 248.548C851.269 247.406 851.141 246.263 851.014 245.125C851.142 246.268 851.269 247.408 851.397 248.548Z" fill="#0000FF"/>
<path fill-rule="evenodd" clip-rule="evenodd" d="M238.588 582.452C239.418 582.439 240.249 582.426 241.07 582.415C240.236 582.429 239.412 582.44 238.588 582.452Z" fill="#0000FF"/>
<path fill-rule="evenodd" clip-rule="evenodd" d="M540.854 582.542C541.662 582.505 542.468 582.469 543.266 582.433C542.457 582.47 541.655 582.506 540.854 582.542Z" fill="#0000FF"/>
<path fill-rule="evenodd" clip-rule="evenodd" d="M844.646 165.158C844.609 164.001 844.573 162.844 844.537 161.689C844.574 162.847 844.61 164.002 844.646 165.158Z" fill="#0000FF"/>
<path fill-rule="evenodd" clip-rule="evenodd" d="M159.885 583.208C160.695 583.202 161.504 583.195 162.303 583.19C161.489 583.197 160.688 583.203 159.885 583.208Z" fill="#0000FF"/>
<path fill-rule="evenodd" clip-rule="evenodd" d="M844.307 583.197C845.139 583.205 845.972 583.214 846.794 583.223C845.957 583.215 845.132 583.206 844.307 583.197Z" fill="#0000FF"/>
<path fill-rule="evenodd" clip-rule="evenodd" d="M862.282 583.097C863.086 583.154 863.889 583.212 864.683 583.267C863.876 583.21 863.079 583.154 862.282 583.097Z" fill="#0000FF"/>
<path fill-rule="evenodd" clip-rule="evenodd" d="M869.542 583.083C870.36 583.107 871.179 583.132 871.987 583.15C871.166 583.125 870.354 583.104 869.542 583.083Z" fill="#0000FF"/>
<path fill-rule="evenodd" clip-rule="evenodd" d="M906.817 253.134C906.763 251.996 906.71 250.857 906.657 249.722C906.711 250.862 906.763 251.998 906.817 253.134Z" fill="#0000FF"/>
<path fill-rule="evenodd" clip-rule="evenodd" d="M357.484 568.166C359.973 568.037 362.463 567.907 364.953 567.777C362.463 567.907 359.973 568.036 357.484 568.166Z" fill="#0000FF"/>
<path fill-rule="evenodd" clip-rule="evenodd" d="M207.295 154.369C209.456 154.557 211.617 154.745 213.776 154.931C211.615 154.744 209.455 154.556 207.295 154.369Z" fill="#0000FF"/>
<path fill-rule="evenodd" clip-rule="evenodd" d="M817.442 248.321C817.509 250.383 817.578 252.445 817.645 254.501C817.577 252.438 817.509 250.38 817.442 248.321Z" fill="#0000FF"/>
<path fill-rule="evenodd" clip-rule="evenodd" d="M862.04 571.692C864.296 571.829 866.551 571.965 868.807 572.102C866.537 572.205 864.233 572.852 862.04 571.692Z" fill="#0000FF"/>
<path fill-rule="evenodd" clip-rule="evenodd" d="M848.69 327.786C848.707 325.819 848.724 323.852 848.74 321.89C848.723 323.858 848.707 325.822 848.69 327.786Z" fill="#0000FF"/>
<path fill-rule="evenodd" clip-rule="evenodd" d="M842.916 389.587C844.895 389.613 846.876 389.64 848.854 389.666C846.874 389.639 844.895 389.613 842.916 389.587Z" fill="#0000FF"/>
<path fill-rule="evenodd" clip-rule="evenodd" d="M344.632 355.006C344.582 356.505 344.533 358.004 344.486 359.496C344.536 357.995 344.584 356.501 344.632 355.006Z" fill="#0000FF"/>
<path fill-rule="evenodd" clip-rule="evenodd" d="M875.859 291.531C875.778 293.023 875.697 294.515 875.618 295.999C875.7 294.506 875.78 293.018 875.859 291.531Z" fill="#0000FF"/>
<path fill-rule="evenodd" clip-rule="evenodd" d="M833.63 565.055C835.07 564.957 836.51 564.86 837.947 564.767C836.864 565.634 835.775 565.706 833.63 565.055Z" fill="#0000FF"/>
<path fill-rule="evenodd" clip-rule="evenodd" d="M823.993 370.056C824.092 371.664 824.191 373.272 824.289 374.875C824.19 373.266 824.092 371.661 823.993 370.056Z" fill="#0000FF"/>
<path fill-rule="evenodd" clip-rule="evenodd" d="M285.578 116.252C285.593 114.699 285.608 113.146 285.624 111.599C285.609 113.154 285.594 114.703 285.578 116.252Z" fill="#0000FF"/>
<path fill-rule="evenodd" clip-rule="evenodd" d="M825.736 389.911L831.103 389.794C829.332 390.65 827.543 390.68 825.736 389.911Z" fill="#0000FF"/>
<path fill-rule="evenodd" clip-rule="evenodd" d="M875.251 401.372C873.985 401.383 872.72 401.393 871.463 401.406C872.732 401.396 873.992 401.384 875.251 401.372Z" fill="#0000FF"/>
<path fill-rule="evenodd" clip-rule="evenodd" d="M411.779 565.673C413.531 565.696 415.283 565.719 417.035 565.741C415.27 566.626 413.516 566.751 411.779 565.673Z" fill="#0000FF"/>
<path fill-rule="evenodd" clip-rule="evenodd" d="M818.06 261.564C818.147 263.178 818.234 264.792 818.321 266.401C818.234 264.785 818.147 263.175 818.06 261.564Z" fill="#0000FF"/>
<path fill-rule="evenodd" clip-rule="evenodd" d="M250.518 158.158C252.017 157.419 253.528 157.295 255.054 158.078C253.541 158.105 252.03 158.132 250.518 158.158Z" fill="#0000FF"/>
<path fill-rule="evenodd" clip-rule="evenodd" d="M769.026 280.201C769.15 281.562 769.274 282.924 769.398 284.281C769.273 282.918 769.15 281.559 769.026 280.201Z" fill="#0000FF"/>
<path fill-rule="evenodd" clip-rule="evenodd" d="M895.653 248.434C894.883 247.102 894.91 245.777 895.691 244.464C895.678 245.789 895.666 247.112 895.653 248.434Z" fill="#0000FF"/>
<path fill-rule="evenodd" clip-rule="evenodd" d="M818.305 202.194C818.305 203.541 818.306 204.889 818.306 206.232C818.305 204.882 818.305 203.538 818.305 202.194Z" fill="#0000FF"/>
<path fill-rule="evenodd" clip-rule="evenodd" d="M872.039 388.943C873.582 388.47 875.125 387.801 876.661 388.959C875.12 388.954 873.58 388.948 872.039 388.943Z" fill="#0000FF"/>
<path fill-rule="evenodd" clip-rule="evenodd" d="M160.589 567.56C162.011 566.935 163.43 566.607 164.831 567.608C163.416 567.591 162.003 567.576 160.589 567.56Z" fill="#0000FF"/>
<path fill-rule="evenodd" clip-rule="evenodd" d="M451.452 565.555C452.973 564.891 454.49 564.526 455.991 565.602C454.477 565.586 452.965 565.571 451.452 565.555Z" fill="#0000FF"/>
<path fill-rule="evenodd" clip-rule="evenodd" d="M112.964 368.829C113.078 370.202 113.193 371.575 113.306 372.944C113.191 371.57 113.077 370.2 112.964 368.829Z" fill="#0000FF"/>
<path fill-rule="evenodd" clip-rule="evenodd" d="M465.988 289.745C467.484 289.201 468.975 288.917 470.444 289.826C468.958 289.798 467.473 289.772 465.988 289.745Z" fill="#0000FF"/>
<path fill-rule="evenodd" clip-rule="evenodd" d="M818.036 330.615C818.119 331.957 818.202 333.299 818.284 334.638C818.201 333.295 818.118 331.955 818.036 330.615Z" fill="#0000FF"/>
<path fill-rule="evenodd" clip-rule="evenodd" d="M111.997 209.523C111.873 210.604 111.749 211.686 111.626 212.761C111.75 211.678 111.873 210.601 111.997 209.523Z" fill="#0000FF"/>
<path fill-rule="evenodd" clip-rule="evenodd" d="M25.2852 523.014C25.2082 524.067 25.1322 525.119 25.0562 526.165C25.1352 525.111 25.2102 524.062 25.2852 523.014Z" fill="#0000FF"/>
<path fill-rule="evenodd" clip-rule="evenodd" d="M849.354 337.717C849.27 336.629 849.186 335.541 849.102 334.458C849.186 335.548 849.27 336.633 849.354 337.717Z" fill="#0000FF"/>
<path fill-rule="evenodd" clip-rule="evenodd" d="M344.127 364.264C344.376 365.056 344.625 365.849 344.874 366.642C343.211 367.044 342.962 366.251 344.127 364.264Z" fill="#0000FF"/>
<path fill-rule="evenodd" clip-rule="evenodd" d="M444.079 287.955C445.433 287.949 446.787 287.944 448.141 287.938C446.789 288.58 445.436 289.021 444.079 287.955Z" fill="#0000FF"/>
<path fill-rule="evenodd" clip-rule="evenodd" d="M113.723 375.329C113.769 376.529 113.815 377.73 113.859 378.926C113.812 377.725 113.767 376.527 113.723 375.329Z" fill="#0000FF"/>
<path fill-rule="evenodd" clip-rule="evenodd" d="M772.313 387.982C772.361 389.087 772.41 390.192 772.459 391.291C772.412 390.183 772.362 389.083 772.313 387.982Z" fill="#0000FF"/>
<path fill-rule="evenodd" clip-rule="evenodd" d="M100.301 570.219C101.586 569.366 102.874 569.44 104.164 570.205C102.876 570.21 101.588 570.215 100.301 570.219Z" fill="#0000FF"/>
<path fill-rule="evenodd" clip-rule="evenodd" d="M134.139 194.086C134.208 195.214 134.278 196.343 134.35 197.464C134.281 196.334 134.21 195.21 134.139 194.086Z" fill="#0000FF"/>
<path fill-rule="evenodd" clip-rule="evenodd" d="M93.6152 570.336C94.9512 570.341 96.2872 570.347 97.6222 570.353C96.2822 571.265 94.9472 571.308 93.6152 570.336Z" fill="#0000FF"/>
<path fill-rule="evenodd" clip-rule="evenodd" d="M833.403 176.379C833.414 175.233 833.424 174.088 833.434 172.945C833.423 174.092 833.413 175.235 833.403 176.379Z" fill="#0000FF"/>
<path fill-rule="evenodd" clip-rule="evenodd" d="M220.054 156.339C221.332 156.506 222.61 156.673 223.887 156.839C222.609 156.672 221.331 156.506 220.054 156.339Z" fill="#0000FF"/>
<path fill-rule="evenodd" clip-rule="evenodd" d="M107.278 255.238C107.295 256.308 107.312 257.379 107.332 258.444C107.315 257.372 107.297 256.305 107.278 255.238Z" fill="#0000FF"/>
<path fill-rule="evenodd" clip-rule="evenodd" d="M842.007 255.084C841.937 253.994 841.867 252.904 841.797 251.819C841.867 252.911 841.938 253.998 842.007 255.084Z" fill="#0000FF"/>
<path fill-rule="evenodd" clip-rule="evenodd" d="M543.935 569.058C545.512 569.201 547.089 569.344 548.665 569.486C547.088 569.343 545.512 569.201 543.935 569.058Z" fill="#0000FF"/>
<path fill-rule="evenodd" clip-rule="evenodd" d="M538.666 528.235C537.813 528.249 536.962 528.262 536.117 528.28C536.972 528.269 537.819 528.252 538.666 528.235Z" fill="#0000FF"/>
<path fill-rule="evenodd" clip-rule="evenodd" d="M538.738 568.434C540.06 568.564 541.384 568.695 542.706 568.825C541.383 568.694 540.06 568.564 538.738 568.434Z" fill="#0000FF"/>
<path fill-rule="evenodd" clip-rule="evenodd" d="M300.717 479.365C302.438 489.089 287.326 498.599 286.128 484.776C285.69 479.721 289.07 476.167 292.855 473.077C298.227 468.692 301.228 472.891 300.717 479.365Z" fill="#0000FF"/>
<path fill-rule="evenodd" clip-rule="evenodd" d="M134.144 360.728C137.704 362.185 164.903 371.048 150.775 375.506C147.035 376.686 141.382 376.862 138.14 374.783C134.24 372.281 130.306 364.898 134.144 360.728Z" fill="#0000FF"/>
<path fill-rule="evenodd" clip-rule="evenodd" d="M140.838 229.044C150.07 227.972 158.576 243.135 147.194 242.643C138.909 242.284 127.767 229.044 140.838 229.044Z" fill="#0000FF"/>
<path fill-rule="evenodd" clip-rule="evenodd" d="M173.863 266.222C181.572 272.948 167.283 288.001 161.61 282.175C158.713 279.199 161.385 272.788 163.776 270.298C166.23 267.743 170.596 267.263 173.863 266.222Z" fill="#0000FF"/>
<path fill-rule="evenodd" clip-rule="evenodd" d="M196.813 440.591C192.262 441.314 172.248 447.854 176.422 435.975C178.014 431.445 182.454 432.789 186.513 432.997C193.055 433.331 196.813 433.018 196.813 440.591Z" fill="#0000FF"/>
<path fill-rule="evenodd" clip-rule="evenodd" d="M183.63 471.188C190.443 474.833 180.484 495.231 174.837 490.891C167.002 484.869 177.718 473.02 183.63 471.188Z" fill="#0000FF"/>
<path fill-rule="evenodd" clip-rule="evenodd" d="M213.344 454.791C216.657 453.438 232.274 468.46 226.329 472.639C223.282 474.781 217.509 471.109 215.672 468.895C212.228 464.743 211.916 459.621 213.344 454.791Z" fill="#0000FF"/>
<path fill-rule="evenodd" clip-rule="evenodd" d="M123.241 332.006C126.627 332.562 132.473 332.738 132.692 337.496C132.884 341.678 127.641 343.033 123.95 343.361C120.12 343.701 115.05 342.62 114.977 337.805C114.9 332.61 123.121 332.923 123.241 332.006Z" fill="#0000FF"/>
<path fill-rule="evenodd" clip-rule="evenodd" d="M206.739 539.058C210.345 541.247 227.165 549.129 219.955 554.823C217.257 556.954 209.078 552.553 207.237 550.316C205.04 547.646 202.893 541.391 206.739 539.058Z" fill="#0000FF"/>
<path fill-rule="evenodd" clip-rule="evenodd" d="M253.497 481.864C252.976 473.164 267.654 469.701 264.611 482.05C263.753 485.532 262.923 490.817 258.618 491.019C253.53 491.258 253.346 485.238 253.497 481.864Z" fill="#0000FF"/>
<path fill-rule="evenodd" clip-rule="evenodd" d="M208.155 330.573C208.257 337.173 195.611 342.993 195.513 332.532C195.426 323.184 208.627 320.448 208.155 330.573Z" fill="#0000FF"/>
<path fill-rule="evenodd" clip-rule="evenodd" d="M199.804 296.2C202.92 297.204 207.061 297.721 207.335 301.68C207.626 305.87 203.734 307.735 200.232 307.5C197.36 307.307 193.11 305.181 192.588 302.065C191.823 297.491 196.287 297.192 199.804 296.2Z" fill="#0000FF"/>
<path fill-rule="evenodd" clip-rule="evenodd" d="M141.862 417.033C141.809 411.587 152.723 405.042 154.733 411.361C155.376 413.383 150.232 422.45 148.521 423.129C143.994 424.926 143.362 420.738 141.862 417.033Z" fill="#0000FF"/>
<path fill-rule="evenodd" clip-rule="evenodd" d="M231.297 507.676C227.609 510.977 216.546 520.25 217.373 507.802C217.901 499.85 232.27 500.265 231.297 507.676Z" fill="#0000FF"/>
<path fill-rule="evenodd" clip-rule="evenodd" d="M411.54 543.253C412.749 538.019 430.057 547.099 424.281 553.71C422.343 555.929 417.274 553.921 415.325 552.606C411.468 550.003 411.384 547.6 411.54 543.253Z" fill="#0000FF"/>
<path fill-rule="evenodd" clip-rule="evenodd" d="M315.105 431.215C315.78 428.882 316.53 424.756 318.756 423.267C322.784 420.573 326.291 424.637 326.292 428.92C326.293 436.91 317.198 439.43 315.105 431.215Z" fill="#0000FF"/>
<path fill-rule="evenodd" clip-rule="evenodd" d="M272.208 524.634C276.702 525.664 286.708 536.588 280.905 541.044C275.32 545.333 267.892 527.897 272.208 524.634Z" fill="#0000FF"/>
<path fill-rule="evenodd" clip-rule="evenodd" d="M276.486 441.946C282.264 442.407 290.206 451.764 281.225 453.251C274.2 454.415 266.03 444.238 276.486 441.946Z" fill="#0000FF"/>
<path fill-rule="evenodd" clip-rule="evenodd" d="M328.796 485.003C330.245 480.122 344.575 485.352 343.77 490.726C343.342 493.583 337.483 494.254 334.403 493.499C329.869 492.386 328.692 489.412 328.796 485.003Z" fill="#0000FF"/>
<path fill-rule="evenodd" clip-rule="evenodd" d="M159.879 212.397C159.983 206.087 172.108 203.515 172.996 209.874C173.799 215.619 159.727 221.732 159.879 212.397Z" fill="#0000FF"/>
<path fill-rule="evenodd" clip-rule="evenodd" d="M324.79 550.022C325.664 546.849 326.041 543.03 330.004 542.612C334.542 542.133 334.408 545.613 333.875 549.219C332.423 559.03 326.879 559.52 324.79 550.022Z" fill="#0000FF"/>
<path fill-rule="evenodd" clip-rule="evenodd" d="M133.314 287.472C126.993 288.898 115.416 276.724 122.492 274.112C127.478 272.269 133.314 283.799 133.314 287.472Z" fill="#0000FF"/>
<path fill-rule="evenodd" clip-rule="evenodd" d="M213.936 382.036C210.719 383.551 209.978 384.47 207.507 381.984C205.355 379.819 205.45 373.787 207.297 371.535C214.371 362.911 214.205 378.546 213.936 382.036Z" fill="#0000FF"/>
<path fill-rule="evenodd" clip-rule="evenodd" d="M240.182 364.545C243.537 364.972 253.506 374.428 248.315 378.186C241.954 382.79 238.355 368.367 240.182 364.545Z" fill="#0000FF"/>
<path fill-rule="evenodd" clip-rule="evenodd" d="M312.77 367.035C310.331 376.426 304.244 370.107 304.589 363.001C305.143 351.619 311.451 361.532 312.77 367.035Z" fill="#0000FF"/>
<path fill-rule="evenodd" clip-rule="evenodd" d="M349.782 517.861C353.908 519.568 359.508 535.34 353.615 536.186C346.996 537.135 349.2 521.145 349.782 517.861Z" fill="#0000FF"/>
<path fill-rule="evenodd" clip-rule="evenodd" d="M298.257 509C302.978 507.407 304.708 517.366 301.964 519.216C295.927 523.286 297.2 511.35 298.257 509Z" fill="#0000FF"/>
<path fill-rule="evenodd" clip-rule="evenodd" d="M253.497 481.864C253.437 483.186 253.378 484.508 253.316 485.822C253.375 484.498 253.435 483.181 253.497 481.864Z" fill="#0000FF"/>
<path fill-rule="evenodd" clip-rule="evenodd" d="M411.54 543.253C411.491 544.609 411.442 545.964 411.391 547.313C411.438 545.955 411.489 544.604 411.54 543.253Z" fill="#0000FF"/>
<path fill-rule="evenodd" clip-rule="evenodd" d="M328.796 485.003C328.77 486.153 328.742 487.303 328.712 488.446C328.738 487.293 328.768 486.148 328.796 485.003Z" fill="#0000FF"/>
<path fill-rule="evenodd" clip-rule="evenodd" d="M850.993 465.212C860.781 464.898 871.7 461.214 881.318 462.386C883.966 462.709 890.061 463.376 885.819 467.303C883.79 469.181 874.077 468.21 871.137 468.833C853.166 472.638 832.766 475.092 814.339 474.775C805.713 474.627 797.023 473.936 788.401 473.48C779.785 473.024 778.938 469.523 788.633 468.409C798.702 467.253 809.034 467.682 819.153 467.67C829.791 467.656 840.376 465.922 850.993 465.212Z" fill="#0000FF"/>
<path fill-rule="evenodd" clip-rule="evenodd" d="M872.481 441.63C871.539 444.312 870.712 450.468 867.102 450.872C862.046 451.437 861.209 442.756 861.395 439.581C861.621 435.749 863 429.383 867.763 430.711C871.786 431.831 872.189 438.563 872.481 441.63Z" fill="#0000FF"/>
<path fill-rule="evenodd" clip-rule="evenodd" d="M841.872 439.666C842.611 436.794 842.974 430.318 847.036 430.098C851.576 429.853 852.873 436.6 852.843 439.833C852.813 442.902 851.678 448.699 848.063 449.408C843.162 450.369 842.724 442.948 841.872 439.666Z" fill="#0000FF"/>
<path fill-rule="evenodd" clip-rule="evenodd" d="M790.896 444.818C789.425 448.27 788.452 453.025 783.9 450.671C780.38 448.851 779.889 441.51 780.553 438.149C781.241 434.667 782.698 430.673 786.699 432.239C791.313 434.046 790.847 441.017 790.896 444.818Z" fill="#0000FF"/>
<path fill-rule="evenodd" clip-rule="evenodd" d="M829.499 441.63C825.16 454.783 817.246 445.884 820.251 436.064C823.393 425.8 829.1 435.769 829.499 441.63Z" fill="#0000FF"/>
<path fill-rule="evenodd" clip-rule="evenodd" d="M808.358 442.281C807.153 444.597 805.871 449.593 802.623 449.067C798.641 448.421 798.513 440.758 798.95 437.904C799.331 435.406 800.453 431.243 803.786 431.297C808.602 431.375 808.279 439.283 808.358 442.281Z" fill="#0000FF"/>
<path fill-rule="evenodd" clip-rule="evenodd" d="M894.91 444.806C891.68 452.053 887.237 445.81 888.659 440.663C890.768 433.03 894.727 439.793 894.91 444.806Z" fill="#0000FF"/>
<path fill-rule="evenodd" clip-rule="evenodd" d="M815.806 467.679C812.279 467.665 808.75 467.652 805.223 467.639C808.753 466.974 812.283 466.715 815.806 467.679Z" fill="#0000FF"/>
<path fill-rule="evenodd" clip-rule="evenodd" d="M885.907 462.356C882.847 462.376 879.788 462.395 876.73 462.415C879.784 461.499 882.843 461.479 885.907 462.356Z" fill="#0000FF"/>
<path fill-rule="evenodd" clip-rule="evenodd" d="M790.897 444.818C790.875 443.06 790.851 441.302 790.83 439.548C791.735 441.296 791.672 443.052 790.897 444.818Z" fill="#0000FF"/>
<path fill-rule="evenodd" clip-rule="evenodd" d="M810.091 474.738C811.511 474.751 812.931 474.763 814.339 474.776C812.915 474.763 811.503 474.751 810.091 474.738Z" fill="#0000FF"/>
<path fill-rule="evenodd" clip-rule="evenodd" d="M786.245 473.48C787.683 473.48 789.122 473.479 790.55 473.48C789.106 473.48 787.676 473.48 786.245 473.48Z" fill="#0000FF"/>
<path fill-rule="evenodd" clip-rule="evenodd" d="M798.037 467.831C796.037 467.995 794.037 468.159 792.038 468.323C794.038 468.159 796.037 467.995 798.037 467.831Z" fill="#0000FF"/>
<path fill-rule="evenodd" clip-rule="evenodd" d="M825.077 467.657C823.102 467.661 821.128 467.665 819.153 467.669C821.127 466.837 823.101 466.813 825.077 467.657Z" fill="#0000FF"/>
<path fill-rule="evenodd" clip-rule="evenodd" d="M808.358 442.281C808.309 440.449 808.261 438.617 808.215 436.787C808.264 438.62 808.311 440.451 808.358 442.281Z" fill="#0000FF"/>
<path fill-rule="evenodd" clip-rule="evenodd" d="M780.554 438.149C780.543 439.936 780.532 441.723 780.518 443.503C780.529 441.714 780.541 439.932 780.554 438.149Z" fill="#0000FF"/>
<path fill-rule="evenodd" clip-rule="evenodd" d="M862.214 464.547C860.468 464.705 858.723 464.862 856.979 465.02C858.725 464.862 860.47 464.705 862.214 464.547Z" fill="#0000FF"/>
<path fill-rule="evenodd" clip-rule="evenodd" d="M894.91 444.806C894.853 443.245 894.797 441.684 894.741 440.125C894.798 441.687 894.853 443.246 894.91 444.806Z" fill="#0000FF"/>
<path fill-rule="evenodd" clip-rule="evenodd" d="M820.641 474.79C821.856 474.767 823.071 474.744 824.274 474.723C823.055 474.747 821.848 474.769 820.641 474.79Z" fill="#0000FF"/>
<path fill-rule="evenodd" clip-rule="evenodd" d="M872.481 441.63C872.374 440.508 872.267 439.385 872.161 438.267C872.268 439.391 872.375 440.51 872.481 441.63Z" fill="#0000FF"/>
<path fill-rule="evenodd" clip-rule="evenodd" d="M829.499 441.63C829.421 440.478 829.342 439.325 829.264 438.176C829.343 439.329 829.421 440.48 829.499 441.63Z" fill="#0000FF"/>
<path fill-rule="evenodd" clip-rule="evenodd" d="M202.863 103.1C198.084 101.846 197.188 95.1305 197.956 91.0055C198.827 89.0175 199.698 87.0305 200.569 85.0425C200.228 84.3075 199.888 83.5725 199.548 82.8375C199.985 78.7435 198.868 76.9645 203.573 78.6225C212.313 81.7045 213.71 102.784 202.863 103.1Z" fill="#0000FF"/>
<path fill-rule="evenodd" clip-rule="evenodd" d="M273.605 90.115C277.542 89.805 284.693 94.39 280.774 98.826C278.346 101.574 270.345 100.274 267.081 100.848C262.752 101.609 258.237 102.65 260.579 96.166C262.418 91.074 268.986 89.982 273.605 90.115Z" fill="#0000FF"/>
<path fill-rule="evenodd" clip-rule="evenodd" d="M269.462 120.614C265.463 117.407 267.248 102.8 273.334 105.428C279.595 108.133 272.799 118.506 269.462 120.614Z" fill="#0000FF"/>
<path fill-rule="evenodd" clip-rule="evenodd" d="M197.956 91.0051C197.956 92.5421 197.955 94.0801 197.952 95.6101C197.118 94.0701 197.144 92.5371 197.956 91.0051Z" fill="#0000FF"/>
<path fill-rule="evenodd" clip-rule="evenodd" d="M202.863 103.1C203.678 103.077 204.494 103.053 205.299 103.032C204.48 103.058 203.672 103.079 202.863 103.1Z" fill="#0000FF"/>
<path fill-rule="evenodd" clip-rule="evenodd" d="M696.645 523.767C696.271 530.411 689.136 525.499 689.642 521.054C690.561 512.988 695.122 520.959 696.645 523.767Z" fill="#0000FF"/>
</svg>
