<svg width="415" height="415" viewBox="0 0 415 415" fill="none" xmlns="http://www.w3.org/2000/svg">
<rect width="415" height="415" fill="#211E4F"/>
<path d="M47 188.254C47.2242 187.964 47.5607 187.841 47.6561 187.615C50.2944 181.375 52.9078 175.125 55.5261 168.877C56.288 167.059 57.0311 165.232 57.8383 163.434C57.9551 163.174 58.3634 162.973 58.6751 162.892C59.0289 162.798 59.4259 162.87 59.8042 162.87C160.038 162.87 260.271 162.87 360.505 162.87C361.049 162.87 361.594 162.87 362.282 162.87C358.488 171.861 354.771 180.671 351.024 189.555C350.496 189.555 349.932 189.555 349.369 189.555C285.824 189.555 222.28 189.56 158.736 189.525C157.41 189.524 156.874 189.912 156.356 191.166C152.667 200.098 148.838 208.973 145.081 217.876C141.38 226.646 137.718 235.432 134.024 244.205C131.927 249.185 129.812 254.157 127.659 259.113C127.499 259.48 126.965 259.93 126.604 259.931C114.124 259.957 101.644 259.935 89.1648 259.916C89.125 259.916 89.0852 259.879 88.8708 259.773C98.7272 236.428 108.589 213.072 118.518 189.555C94.6721 189.555 70.969 189.555 47.133 189.555C47 189.161 47 188.766 47 188.254Z" fill="white"/>
<path d="M234.248 200.06C238.868 200.06 243.345 200.06 248.013 200.06C246.841 203.469 245.747 206.711 244.611 209.937C243.09 214.255 241.478 218.542 240.041 222.887C239.694 223.936 239.281 224.216 238.238 224.214C219.469 224.185 200.699 224.206 181.93 224.161C180.711 224.158 180.097 224.387 179.837 225.67C179.327 228.182 178.653 230.66 178.027 233.239C197.019 233.239 215.923 233.239 235.042 233.239C234.521 234.53 234.085 235.702 233.582 236.846C230.41 244.061 227.195 251.257 224.068 258.491C223.574 259.633 223.008 260.002 221.742 260C192.382 259.955 163.022 259.965 133.662 259.965C133.161 259.965 132.659 259.965 131.86 259.965C140.668 239.864 149.376 219.993 158.11 200.06C183.43 200.06 208.768 200.06 234.248 200.06Z" fill="white"/>
<path d="M238.157 239.176C243.896 226.108 249.578 213.135 255.278 200.123C285.242 200.123 315.18 200.123 345.217 200.123C342.394 208.178 339.602 216.148 336.787 224.18C317.056 224.18 297.303 224.18 277.452 224.18C276.691 227.217 275.94 230.218 275.168 233.299C294.166 233.299 313.114 233.299 332.283 233.299C328.35 242.27 324.479 251.102 320.607 259.936C290.129 259.936 259.69 259.936 229.087 259.936C232.116 252.991 235.108 246.132 238.157 239.176Z" fill="white"/>
</svg>
